<svg width="106" height="59" viewBox="0 0 106 59" fill="none" xmlns="http://www.w3.org/2000/svg">
<path opacity="0.08" d="M51.1776 29.872C51.1776 35.504 50.0576 40.528 47.8176 44.944C45.5776 49.296 42.5376 52.72 38.6976 55.216C34.9216 57.712 30.6016 58.96 25.7376 58.96C20.9376 58.96 16.6176 57.712 12.7776 55.216C8.93763 52.72 5.89763 49.296 3.65763 44.944C1.41763 40.528 0.297625 35.504 0.297625 29.872C0.297625 24.24 1.41763 19.248 3.65763 14.896C5.89763 10.48 8.93763 7.024 12.7776 4.528C16.6176 1.968 20.9696 0.688 25.8336 0.688C30.6336 0.688 34.9216 1.968 38.6976 4.528C42.5376 7.024 45.5776 10.48 47.8176 14.896C50.0576 19.248 51.1776 24.24 51.1776 29.872ZM32.7456 29.872C32.7456 27.376 32.4256 25.2 31.7856 23.344C31.2096 21.488 30.3776 20.048 29.2896 19.024C28.2656 17.936 27.0816 17.392 25.7376 17.392C24.3296 17.392 23.0816 17.936 21.9936 19.024C20.9056 20.048 20.0416 21.488 19.4016 23.344C18.8256 25.2 18.5376 27.376 18.5376 29.872C18.5376 32.368 18.8256 34.544 19.4016 36.4C20.0416 38.256 20.9056 39.696 21.9936 40.72C23.0816 41.744 24.3296 42.256 25.7376 42.256C27.0816 42.256 28.2656 41.744 29.2896 40.72C30.3776 39.696 31.2096 38.256 31.7856 36.4C32.4256 34.544 32.7456 32.368 32.7456 29.872ZM105.442 41.68V58H60.9944V41.68H74.6264V22.576C74.0504 23.344 73.1544 24.112 71.9384 24.88C70.7224 25.584 69.3464 26.256 67.8104 26.896C66.3384 27.536 64.8344 28.048 63.2984 28.432C61.7624 28.816 60.3864 29.008 59.1704 29.008V12.304C60.0664 12.304 61.2824 11.984 62.8184 11.344C64.4184 10.704 66.0504 9.904 67.7144 8.944C69.3784 7.92 70.8504 6.896 72.1304 5.872C73.4104 4.848 74.2424 3.952 74.6264 3.184H93.2504V41.68H105.442Z" fill="#F2994A"/>
</svg>
