<svg width="109" height="59" viewBox="0 0 109 59" fill="none" xmlns="http://www.w3.org/2000/svg">
<path opacity="0.08" d="M50.912 29.872C50.912 35.504 49.792 40.528 47.552 44.944C45.312 49.296 42.272 52.72 38.432 55.216C34.656 57.712 30.336 58.96 25.472 58.96C20.672 58.96 16.352 57.712 12.512 55.216C8.672 52.72 5.632 49.296 3.392 44.944C1.152 40.528 0.0320003 35.504 0.0320003 29.872C0.0320003 24.24 1.152 19.248 3.392 14.896C5.632 10.48 8.672 7.024 12.512 4.528C16.352 1.968 20.704 0.688 25.568 0.688C30.368 0.688 34.656 1.968 38.432 4.528C42.272 7.024 45.312 10.48 47.552 14.896C49.792 19.248 50.912 24.24 50.912 29.872ZM32.48 29.872C32.48 27.376 32.16 25.2 31.52 23.344C30.944 21.488 30.112 20.048 29.024 19.024C28 17.936 26.816 17.392 25.472 17.392C24.064 17.392 22.816 17.936 21.728 19.024C20.64 20.048 19.776 21.488 19.136 23.344C18.56 25.2 18.272 27.376 18.272 29.872C18.272 32.368 18.56 34.544 19.136 36.4C19.776 38.256 20.64 39.696 21.728 40.72C22.816 41.744 24.064 42.256 25.472 42.256C26.816 42.256 28 41.744 29.024 40.72C30.112 39.696 30.944 38.256 31.52 36.4C32.16 34.544 32.48 32.368 32.48 29.872ZM57.9448 58C57.9448 54.8 58.2008 51.984 58.7128 49.552C59.2248 47.12 60.0568 44.944 61.2088 43.024C62.3608 41.104 63.8328 39.344 65.6248 37.744C67.4808 36.144 69.7528 34.64 72.4408 33.232C75.8968 31.376 78.6488 29.872 80.6968 28.72C82.7448 27.568 84.2488 26.672 85.2088 26.032C86.2328 25.328 86.8728 24.752 87.1288 24.304C87.4488 23.792 87.6088 23.248 87.6088 22.672C87.6088 21.584 87.3528 20.72 86.8408 20.08C86.3928 19.376 85.7528 18.864 84.9208 18.544C84.0888 18.16 83.0648 17.968 81.8488 17.968C80.8247 17.968 79.8008 18.096 78.7768 18.352C77.8168 18.608 76.8568 19.024 75.8968 19.6C74.9368 20.176 73.9448 20.912 72.9208 21.808C71.9608 22.64 70.9688 23.664 69.9448 24.88L58.4248 11.344C59.7048 10 61.2728 8.784 63.1288 7.696C65.0488 6.54399 67.1608 5.584 69.4648 4.816C71.8328 3.984 74.3288 3.344 76.9528 2.896C79.5768 2.448 82.2648 2.224 85.0168 2.224C89.8808 2.224 93.9768 2.928 97.3048 4.336C100.633 5.68 103.161 7.632 104.889 10.192C106.617 12.752 107.481 15.856 107.481 19.504C107.481 21.488 107.225 23.28 106.713 24.88C106.201 26.416 105.497 27.792 104.601 29.008C103.705 30.224 102.649 31.344 101.433 32.368C100.281 33.392 99.0328 34.352 97.6888 35.248C96.7288 35.76 95.7048 36.304 94.6168 36.88C93.5928 37.392 92.5368 37.904 91.4488 38.416C90.3608 38.928 89.2728 39.472 88.1848 40.048C87.0968 40.56 86.0088 41.104 84.9208 41.68H108.537V58H57.9448Z" fill="#F2994A"/>
</svg>
