<svg width="108" height="73" viewBox="0 0 108 73" fill="none" xmlns="http://www.w3.org/2000/svg">
<path opacity="0.08" d="M50.912 29.872C50.912 35.504 49.792 40.528 47.552 44.944C45.312 49.296 42.272 52.72 38.432 55.216C34.656 57.712 30.336 58.96 25.472 58.96C20.672 58.96 16.352 57.712 12.512 55.216C8.672 52.72 5.632 49.296 3.392 44.944C1.152 40.528 0.0320003 35.504 0.0320003 29.872C0.0320003 24.24 1.152 19.248 3.392 14.896C5.632 10.48 8.672 7.024 12.512 4.528C16.352 1.968 20.704 0.688 25.568 0.688C30.368 0.688 34.656 1.968 38.432 4.528C42.272 7.024 45.312 10.48 47.552 14.896C49.792 19.248 50.912 24.24 50.912 29.872ZM32.48 29.872C32.48 27.376 32.16 25.2 31.52 23.344C30.944 21.488 30.112 20.048 29.024 19.024C28 17.936 26.816 17.392 25.472 17.392C24.064 17.392 22.816 17.936 21.728 19.024C20.64 20.048 19.776 21.488 19.136 23.344C18.56 25.2 18.272 27.376 18.272 29.872C18.272 32.368 18.56 34.544 19.136 36.4C19.776 38.256 20.64 39.696 21.728 40.72C22.816 41.744 24.064 42.256 25.472 42.256C26.816 42.256 28 41.744 29.024 40.72C30.112 39.696 30.944 38.256 31.52 36.4C32.16 34.544 32.48 32.368 32.48 29.872ZM94.1368 35.248C96.7608 35.696 99.0648 36.752 101.049 38.416C103.097 40.016 104.697 42.032 105.849 44.464C107.001 46.896 107.577 49.584 107.577 52.528C107.577 56.56 106.457 60.016 104.217 62.896C102.041 65.84 98.9048 68.112 94.8088 69.712C90.7128 71.312 85.8488 72.112 80.2168 72.112C75.3528 72.112 71.0008 71.472 67.1608 70.192C63.3208 68.912 59.8968 66.992 56.8888 64.432L66.2008 51.184C68.0568 52.592 70.0088 53.648 72.0568 54.352C74.1688 55.056 76.5688 55.408 79.2568 55.408C82.5208 55.408 84.8888 54.928 86.3608 53.968C87.8968 52.944 88.6648 51.344 88.6648 49.168C88.6648 46.736 87.7048 45.008 85.7848 43.984C83.8648 42.896 80.7288 42.352 76.3768 42.352H73.4008V29.68H76.7608C79.8328 29.68 82.2968 29.072 84.1528 27.856C86.0088 26.64 86.9368 25.04 86.9368 23.056C86.9368 22.032 86.6808 21.168 86.1688 20.464C85.7208 19.696 85.0168 19.12 84.0568 18.736C83.1608 18.352 82.0408 18.16 80.6968 18.16C78.5208 18.16 76.4408 18.736 74.4568 19.888C72.4728 20.976 70.7448 22.64 69.2728 24.88L57.7528 11.344C59.2888 9.616 61.3368 8.112 63.8968 6.832C66.5208 5.552 69.4648 4.56 72.7288 3.856C75.9928 3.088 79.3528 2.704 82.8088 2.704C87.5448 2.704 91.6728 3.408 95.1928 4.816C98.7768 6.224 101.561 8.208 103.545 10.768C105.529 13.264 106.521 16.208 106.521 19.6C106.521 22.096 105.977 24.464 104.889 26.704C103.801 28.944 102.329 30.832 100.473 32.368C98.6168 33.84 96.5048 34.8 94.1368 35.248Z" fill="#F2994A"/>
</svg>
