<svg width="107" height="73" viewBox="0 0 107 73" fill="none" xmlns="http://www.w3.org/2000/svg">
<path opacity="0.08" d="M50.912 29.872C50.912 35.504 49.792 40.528 47.552 44.944C45.312 49.296 42.272 52.72 38.432 55.216C34.656 57.712 30.336 58.96 25.472 58.96C20.672 58.96 16.352 57.712 12.512 55.216C8.672 52.72 5.632 49.296 3.392 44.944C1.152 40.528 0.0320003 35.504 0.0320003 29.872C0.0320003 24.24 1.152 19.248 3.392 14.896C5.632 10.48 8.672 7.024 12.512 4.528C16.352 1.968 20.704 0.688 25.568 0.688C30.368 0.688 34.656 1.968 38.432 4.528C42.272 7.024 45.312 10.48 47.552 14.896C49.792 19.248 50.912 24.24 50.912 29.872ZM32.48 29.872C32.48 27.376 32.16 25.2 31.52 23.344C30.944 21.488 30.112 20.048 29.024 19.024C28 17.936 26.816 17.392 25.472 17.392C24.064 17.392 22.816 17.936 21.728 19.024C20.64 20.048 19.776 21.488 19.136 23.344C18.56 25.2 18.272 27.376 18.272 29.872C18.272 32.368 18.56 34.544 19.136 36.4C19.776 38.256 20.64 39.696 21.728 40.72C22.816 41.744 24.064 42.256 25.472 42.256C26.816 42.256 28 41.744 29.024 40.72C30.112 39.696 30.944 38.256 31.52 36.4C32.16 34.544 32.48 32.368 32.48 29.872ZM80.0248 72.304C75.0328 72.304 70.5208 71.344 66.4888 69.424C62.5208 67.568 59.4488 64.944 57.2728 61.552L67.2568 50.032C69.1128 52.016 71.1608 53.584 73.4008 54.736C75.7048 55.824 77.9448 56.368 80.1208 56.368C81.7208 56.368 83.0648 56.08 84.1528 55.504C85.3048 54.928 86.1688 54.096 86.7448 53.008C87.3848 51.92 87.7048 50.672 87.7048 49.264C87.7048 47.856 87.4168 46.64 86.8408 45.616C86.3288 44.528 85.5608 43.696 84.5368 43.12C83.5768 42.544 82.4248 42.256 81.0808 42.256C79.7368 42.256 78.4888 42.576 77.3368 43.216C76.2488 43.792 75.4168 44.592 74.8408 45.616H59.1928L67.2568 3.184H101.433V19.792H80.4088L79.3528 27.184C79.3528 27.184 79.7048 27.12 80.4088 26.992C81.1128 26.8 82.2328 26.704 83.7688 26.704C88.1848 26.704 92.0888 27.664 95.4808 29.584C98.9368 31.44 101.625 34.032 103.545 37.36C105.465 40.688 106.425 44.528 106.425 48.88C106.425 53.488 105.305 57.552 103.065 61.072C100.825 64.592 97.7208 67.344 93.7528 69.328C89.8488 71.312 85.2728 72.304 80.0248 72.304Z" fill="#F2994A"/>
</svg>
