<svg width="110" height="70" viewBox="0 0 110 70" fill="none" xmlns="http://www.w3.org/2000/svg">
<path opacity="0.08" d="M50.912 40.872C50.912 46.504 49.792 51.528 47.552 55.944C45.312 60.296 42.272 63.72 38.432 66.216C34.656 68.712 30.336 69.96 25.472 69.96C20.672 69.96 16.352 68.712 12.512 66.216C8.672 63.72 5.632 60.296 3.392 55.944C1.152 51.528 0.0320003 46.504 0.0320003 40.872C0.0320003 35.24 1.152 30.248 3.392 25.896C5.632 21.48 8.672 18.024 12.512 15.528C16.352 12.968 20.704 11.688 25.568 11.688C30.368 11.688 34.656 12.968 38.432 15.528C42.272 18.024 45.312 21.48 47.552 25.896C49.792 30.248 50.912 35.24 50.912 40.872ZM32.48 40.872C32.48 38.376 32.16 36.2 31.52 34.344C30.944 32.488 30.112 31.048 29.024 30.024C28 28.936 26.816 28.392 25.472 28.392C24.064 28.392 22.816 28.936 21.728 30.024C20.64 31.048 19.776 32.488 19.136 34.344C18.56 36.2 18.272 38.376 18.272 40.872C18.272 43.368 18.56 45.544 19.136 47.4C19.776 49.256 20.64 50.696 21.728 51.72C22.816 52.744 24.064 53.256 25.472 53.256C26.816 53.256 28 52.744 29.024 51.72C30.112 50.696 30.944 49.256 31.52 47.4C32.16 45.544 32.48 43.368 32.48 40.872ZM109.881 45.96C109.881 41.672 108.825 37.864 106.713 34.536C104.665 31.144 101.817 28.488 98.1688 26.568C94.5848 24.584 90.4888 23.592 85.8808 23.592C84.4088 23.592 83.0328 23.72 81.7528 23.976C80.4728 24.168 79.3208 24.52 78.2968 25.032C77.2728 25.48 76.3448 26.088 75.5128 26.856C75.6408 24.552 76.1208 22.6 76.9528 21C77.7848 19.4 78.9688 18.184 80.5048 17.352C82.0408 16.456 83.8328 16.008 85.8808 16.008C88.0568 16.008 90.1688 16.456 92.2168 17.352C94.2648 18.248 96.1208 19.528 97.7848 21.192L107.865 9.48C104.857 6.472 101.529 4.2 97.8808 2.664C94.2328 1.064 90.3288 0.263998 86.1688 0.263998C80.4728 0.263998 75.5768 1.704 71.4808 4.584C67.3848 7.464 64.2168 11.624 61.9768 17.064C59.8008 22.44 58.7128 28.872 58.7128 36.36C58.7128 43.464 59.7048 49.512 61.6888 54.504C63.7368 59.496 66.6488 63.336 70.4248 66.024C74.2648 68.648 78.9048 69.96 84.3448 69.96C89.2088 69.96 93.5608 68.904 97.4008 66.792C101.241 64.616 104.281 61.736 106.521 58.152C108.761 54.504 109.881 50.44 109.881 45.96ZM84.3448 54.696C82.9368 54.696 81.5928 54.312 80.3127 53.544C79.0968 52.712 78.1048 51.624 77.3368 50.28C76.5688 48.936 76.1848 47.496 76.1848 45.96C76.1848 44.424 76.5368 43.048 77.2408 41.832C78.0088 40.616 79.0008 39.656 80.2168 38.952C81.4968 38.248 82.8728 37.896 84.3448 37.896C85.8808 37.896 87.2568 38.248 88.4728 38.952C89.6888 39.656 90.6488 40.616 91.3528 41.832C92.1208 43.048 92.5048 44.424 92.5048 45.96C92.5048 47.496 92.1208 48.936 91.3528 50.28C90.5848 51.624 89.5928 52.712 88.3768 53.544C87.1608 54.312 85.8168 54.696 84.3448 54.696Z" fill="#F2994A"/>
</svg>
