<svg width="113" height="71" viewBox="0 0 113 71" fill="none" xmlns="http://www.w3.org/2000/svg">
<path opacity="0.08" d="M50.912 29.872C50.912 35.504 49.792 40.528 47.552 44.944C45.312 49.296 42.272 52.72 38.432 55.216C34.656 57.712 30.336 58.96 25.472 58.96C20.672 58.96 16.352 57.712 12.512 55.216C8.672 52.72 5.632 49.296 3.392 44.944C1.152 40.528 0.0320003 35.504 0.0320003 29.872C0.0320003 24.24 1.152 19.248 3.392 14.896C5.632 10.48 8.672 7.024 12.512 4.528C16.352 1.968 20.704 0.688 25.568 0.688C30.368 0.688 34.656 1.968 38.432 4.528C42.272 7.024 45.312 10.48 47.552 14.896C49.792 19.248 50.912 24.24 50.912 29.872ZM32.48 29.872C32.48 27.376 32.16 25.2 31.52 23.344C30.944 21.488 30.112 20.048 29.024 19.024C28 17.936 26.816 17.392 25.472 17.392C24.064 17.392 22.816 17.936 21.728 19.024C20.64 20.048 19.776 21.488 19.136 23.344C18.56 25.2 18.272 27.376 18.272 29.872C18.272 32.368 18.56 34.544 19.136 36.4C19.776 38.256 20.64 39.696 21.728 40.72C22.816 41.744 24.064 42.256 25.472 42.256C26.816 42.256 28 41.744 29.024 40.72C30.112 39.696 30.944 38.256 31.52 36.4C32.16 34.544 32.48 32.368 32.48 29.872ZM83.8648 18.544H57.8488V1.936H112.569L79.2568 70.096H58.6168L83.8648 18.544Z" fill="#F2994A"/>
</svg>
