<svg width="110" height="70" viewBox="0 0 110 70" fill="none" xmlns="http://www.w3.org/2000/svg">
<path opacity="0.08" d="M50.912 40.872C50.912 46.504 49.792 51.528 47.552 55.944C45.312 60.296 42.272 63.72 38.432 66.216C34.656 68.712 30.336 69.96 25.472 69.96C20.672 69.96 16.352 68.712 12.512 66.216C8.672 63.72 5.632 60.296 3.392 55.944C1.152 51.528 0.0320003 46.504 0.0320003 40.872C0.0320003 35.24 1.152 30.248 3.392 25.896C5.632 21.48 8.672 18.024 12.512 15.528C16.352 12.968 20.704 11.688 25.568 11.688C30.368 11.688 34.656 12.968 38.432 15.528C42.272 18.024 45.312 21.48 47.552 25.896C49.792 30.248 50.912 35.24 50.912 40.872ZM32.48 40.872C32.48 38.376 32.16 36.2 31.52 34.344C30.944 32.488 30.112 31.048 29.024 30.024C28 28.936 26.816 28.392 25.472 28.392C24.064 28.392 22.816 28.936 21.728 30.024C20.64 31.048 19.776 32.488 19.136 34.344C18.56 36.2 18.272 38.376 18.272 40.872C18.272 43.368 18.56 45.544 19.136 47.4C19.776 49.256 20.64 50.696 21.728 51.72C22.816 52.744 24.064 53.256 25.472 53.256C26.816 53.256 28 52.744 29.024 51.72C30.112 50.696 30.944 49.256 31.52 47.4C32.16 45.544 32.48 43.368 32.48 40.872ZM109.977 47.784C109.977 52.2 108.825 56.072 106.521 59.4C104.217 62.728 101.113 65.32 97.2088 67.176C93.3048 69.032 88.9848 69.96 84.2488 69.96C79.7688 69.96 75.5448 69.032 71.5768 67.176C67.6728 65.32 64.5048 62.696 62.0728 59.304C59.7048 55.848 58.5208 51.816 58.5208 47.208C58.5208 44.904 58.9368 42.824 59.7688 40.968C60.6648 39.112 61.7528 37.48 63.0328 36.072C64.3128 34.664 65.5608 33.512 66.7768 32.616C65.5608 31.848 64.4728 30.856 63.5128 29.64C62.5528 28.424 61.7848 27.08 61.2088 25.608C60.6968 24.072 60.4408 22.568 60.4408 21.096C60.4408 17.832 61.1768 14.952 62.6488 12.456C64.1208 9.896 66.0408 7.752 68.4088 6.024C70.7768 4.296 73.3368 3.016 76.0888 2.184C78.9048 1.288 81.6248 0.839996 84.2488 0.839996C86.8728 0.839996 89.5928 1.288 92.4088 2.184C95.2248 3.016 97.8168 4.296 100.185 6.024C102.553 7.688 104.473 9.768 105.945 12.264C107.417 14.76 108.153 17.64 108.153 20.904C108.153 22.376 107.865 23.88 107.289 25.416C106.713 26.952 105.945 28.36 104.985 29.64C104.025 30.92 102.937 31.912 101.721 32.616C103.001 33.576 104.281 34.792 105.561 36.264C106.841 37.672 107.897 39.336 108.729 41.256C109.561 43.176 109.977 45.352 109.977 47.784ZM91.4488 46.728C91.4488 45.64 91.2568 44.712 90.8728 43.944C90.5528 43.112 90.0408 42.408 89.3368 41.832C88.6968 41.256 87.9288 40.84 87.0328 40.584C86.2008 40.264 85.2728 40.104 84.2488 40.104C82.8408 40.104 81.5928 40.392 80.5048 40.968C79.4168 41.48 78.5528 42.248 77.9128 43.272C77.3368 44.232 77.0488 45.384 77.0488 46.728C77.0488 47.688 77.2408 48.584 77.6248 49.416C78.0088 50.184 78.5208 50.888 79.1608 51.528C79.8008 52.104 80.5368 52.552 81.3688 52.872C82.2648 53.192 83.2248 53.352 84.2488 53.352C85.6568 53.352 86.9048 53.064 87.9928 52.488C89.0808 51.848 89.9128 51.048 90.4888 50.088C91.1288 49.064 91.4488 47.944 91.4488 46.728ZM78.9688 21.48C78.9688 22.632 79.2248 23.592 79.7368 24.36C80.2488 25.064 80.9208 25.608 81.7528 25.992C82.5848 26.376 83.4168 26.568 84.2488 26.568C85.1448 26.568 85.9768 26.376 86.7448 25.992C87.5768 25.608 88.2488 25.064 88.7608 24.36C89.3368 23.592 89.6248 22.632 89.6248 21.48C89.6248 20.648 89.4008 19.88 88.9528 19.176C88.5048 18.472 87.8648 17.928 87.0328 17.544C86.2648 17.096 85.3368 16.872 84.2488 16.872C83.2248 16.872 82.2968 17.096 81.4648 17.544C80.6968 17.928 80.0887 18.472 79.6407 19.176C79.1927 19.88 78.9688 20.648 78.9688 21.48Z" fill="#F2994A"/>
</svg>
