<svg width="88" height="88" viewBox="0 0 88 88" fill="none" xmlns="http://www.w3.org/2000/svg">
<g id="SVG" clip-path="url(#clip0_42_11)">
<path id="Vector" d="M67.3285 22.8176C67.3285 25.4836 65.3876 27.1049 63.9704 28.2947C63.4337 28.7454 62.4347 29.5677 62.4373 29.8748C62.447 31.0797 61.4783 32.0419 60.2732 32.0419C60.2672 32.0419 60.2611 32.0419 60.255 32.0419C59.0584 32.0419 58.0834 31.1093 58.0737 29.9105C58.0545 27.5476 59.7789 26.1325 61.1646 24.9691C62.2519 24.0562 62.9649 23.4138 62.9649 22.8259C62.9649 21.6358 61.9966 20.6676 60.8065 20.6676C59.616 20.6676 58.6475 21.6358 58.6475 22.8259C58.6475 24.031 57.6708 25.0077 56.4657 25.0077C55.2606 25.0077 54.2839 24.031 54.2839 22.8259C54.2839 19.2298 57.2097 16.3039 60.8061 16.3039C64.4027 16.3037 67.3285 19.2213 67.3285 22.8176ZM60.3154 34.0559C59.1103 34.0559 58.1818 35.0327 58.1818 36.2378V36.2545C58.1818 37.4596 59.1105 38.4281 60.3154 38.4281C61.5202 38.4281 62.4972 37.4428 62.4972 36.2378C62.4972 35.0327 61.5205 34.0559 60.3154 34.0559ZM16.3375 49.2542C15.1324 49.2542 14.1556 50.231 14.1556 51.4361C14.1556 52.6412 15.1324 53.6179 16.3375 53.6179H16.5193C17.7244 53.6179 18.7011 52.6412 18.7011 51.4361C18.7011 50.231 17.7244 49.2542 16.5193 49.2542H16.3375ZM23.9202 49.2542C22.7152 49.2542 21.7384 50.231 21.7384 51.4361C21.7384 52.6412 22.7152 53.6179 23.9202 53.6179H24.1018C25.3069 53.6179 26.2836 52.6412 26.2836 51.4361C26.2836 50.231 25.3069 49.2542 24.1018 49.2542H23.9202ZM88 14.406V38.9638C88 44.7784 83.3377 49.4967 77.5231 49.4967H49.2281C48.6749 49.4967 48.2194 49.4935 47.8383 49.4855C47.439 49.4773 46.9896 49.4741 46.8143 49.4935C46.6318 49.6147 46.1842 50.0247 45.753 50.422C45.5821 50.5793 45.3886 50.7524 45.1799 50.943L37.1745 58.2395C36.536 58.822 35.5913 58.9728 34.8005 58.6242C34.0097 58.2753 33.4545 57.4923 33.4545 56.6281V33.4967H10.5988C7.18982 33.4967 4.36364 36.2901 4.36364 39.6986V64.2564C4.36364 67.6652 7.19006 70.3452 10.5988 70.3452H42.2046C42.7488 70.3452 43.2579 70.5951 43.6599 70.9621L50.1818 76.9752V56.2385C50.1818 55.0334 51.1585 54.0567 52.3636 54.0567C53.5687 54.0567 54.5455 55.0334 54.5455 56.2385V81.9204C54.5455 82.7847 54.0509 83.5561 53.2599 83.9049C52.977 84.0298 52.6928 84.079 52.3954 84.079C51.8611 84.079 51.3341 83.8596 50.9241 83.4853L41.3588 74.7085H10.5988C4.784 74.7085 0 70.071 0 64.2562V39.6986C0 33.8841 4.784 29.133 10.5988 29.133H33.4545V14.406C33.4545 8.5912 38.2752 3.9209 44.0899 3.9209H77.5234C83.3377 3.9209 88 8.5912 88 14.406ZM83.6364 14.406C83.6364 10.9973 80.9316 8.28454 77.5231 8.28454H44.0899C40.6812 8.28454 37.8182 10.9973 37.8182 14.406V31.3352V51.6828L42.2048 47.7185C42.408 47.533 42.6356 47.3633 42.8017 47.2101C44.8049 45.3643 45.3173 45.0693 47.9302 45.1231C48.2865 45.1306 48.711 45.1333 49.2281 45.1333H77.5231C80.9316 45.1333 83.6364 42.3725 83.6364 38.9641V14.406Z" fill="#F2C94C"/>
</g>
<defs>
<clipPath id="clip0_42_11">
<rect width="88" height="88" fill="white"/>
</clipPath>
</defs>
</svg>
