<svg width="168" height="72" viewBox="0 0 168 72" fill="none" xmlns="http://www.w3.org/2000/svg">
<path d="M0.067749 56.7802H3.61567V63.3766C3.61567 63.5165 3.60815 63.7301 3.5933 64.0174C3.57827 64.3045 3.55607 64.672 3.52636 65.1201H3.63786C3.87608 64.756 4.07672 64.4514 4.24031 64.2064C4.40407 63.9613 4.53778 63.7687 4.64211 63.6287L9.88587 56.7802H12.7642V71.7376H9.23868V64.637C9.23868 64.245 9.26088 63.7128 9.30545 63.0404H9.21631C9.00798 63.3626 8.81843 63.6497 8.64733 63.9018C8.47623 64.1539 8.30888 64.3779 8.14512 64.574L2.63396 71.7376H0.067749V56.7802ZM19.4357 59.8893V62.6623H21.1317C21.6374 62.6623 22.0427 62.5468 22.3477 62.3122C22.6529 62.081 22.8052 61.7311 22.8052 61.2653C22.8052 60.8417 22.6378 60.5056 22.3032 60.2604C21.9683 60.0119 21.5557 59.8893 21.0646 59.8893H19.4357ZM19.4357 65.6663V68.5865H21.3547C21.92 68.5865 22.3812 68.4603 22.7383 68.2084C23.0953 67.9562 23.2739 67.5851 23.2739 67.0949C23.2739 66.6327 23.0953 66.2792 22.7383 66.034C22.3812 65.7889 21.8902 65.6663 21.2656 65.6663H19.4357ZM26.3307 61.2758C26.3307 62.3541 25.9141 63.2435 25.0813 63.9438C25.6463 64.3219 26.0854 64.7911 26.3977 65.3513C26.7102 65.9115 26.8662 66.5067 26.8662 67.137C26.8662 68.5795 26.3456 69.7068 25.3043 70.5191C24.2927 71.3313 23.0135 71.7376 21.4664 71.7376H15.9327V56.7802H20.9531C22.6937 56.7802 24.0249 57.2143 24.9472 58.0827C25.8697 58.9511 26.3307 60.0153 26.3307 61.2758ZM37.5322 56.7802L44.4272 71.7376H40.4775L39.2057 68.6915H33.2034L31.9316 71.7376H27.982L34.8769 56.7802H37.5322ZM34.4529 65.6244H37.9115L37.086 63.5026C37.0264 63.3626 36.9297 63.0999 36.7959 62.7148C36.662 62.3297 36.4907 61.801 36.2826 61.1288H36.0817C36.0817 61.1707 35.9851 61.4929 35.7916 62.0952C35.6876 62.4172 35.5983 62.6973 35.5239 62.9354C35.4494 63.1736 35.3753 63.3696 35.3008 63.5237L34.4529 65.6244ZM54.6244 62.2631V56.7802H58.15V71.7376H54.6244V65.5613H49.7377V71.7376H46.2122V56.7802H49.7377V62.2631H54.6244ZM66.986 62.2631C68.4886 62.2631 69.7678 62.6973 70.8239 63.5656C71.8652 64.4199 72.386 65.5683 72.386 67.0108C72.386 68.4533 71.8652 69.6018 70.8239 70.4561C69.7826 71.3104 68.5034 71.7376 66.986 71.7376H61.3185V56.7802H64.844V62.2631H66.986ZM66.8745 68.5865C67.4398 68.5865 67.901 68.4463 68.2579 68.1662C68.6149 67.8862 68.7934 67.5011 68.7934 67.0108C68.7934 66.5207 68.6149 66.1356 68.2579 65.8554C67.901 65.5753 67.4398 65.4353 66.8745 65.4353H64.844V68.5865H66.8745ZM77.8528 56.7802V71.7376H74.3273V56.7802H77.8528ZM91.9104 71.7376H88.3849V66.4646C87.8048 66.5626 87.2394 66.6363 86.689 66.6852C86.1385 66.7343 85.6032 66.7589 85.0824 66.7589C82.1816 66.7589 80.7313 65.1832 80.7313 62.0321V56.7802H84.2345V61.78C84.2345 63.0265 84.7253 63.6497 85.7072 63.6497C86.5253 63.6497 87.418 63.5447 88.3849 63.3345V56.7802H91.9104V71.7376ZM106.615 59.8263C105.291 59.8263 104.22 60.2534 103.402 61.1078C102.569 61.976 102.152 63.0195 102.152 64.2378C102.152 65.4703 102.569 66.5207 103.402 67.3891C104.22 68.2433 105.291 68.6705 106.615 68.6705C107.82 68.6705 109.084 68.1173 110.408 67.0108V71.0023C109.055 71.6465 107.79 71.9687 106.615 71.9687C104.369 71.9687 102.465 71.2193 100.903 69.7209C99.3406 68.2363 98.5597 66.4087 98.5597 64.2378C98.5597 62.0952 99.3406 60.2744 100.903 58.776C102.465 57.2774 104.369 56.5282 106.615 56.5282C107.79 56.5282 109.055 56.8502 110.408 57.4944V61.4859C109.055 60.3794 107.79 59.8263 106.615 59.8263ZM118.843 60.0574V71.7376H115.295V60.0574H111.769V56.7802H122.368V60.0574H118.843ZM127.835 60.0364V63.6916H129.062C129.821 63.6916 130.416 63.5271 130.847 63.1979C131.279 62.8689 131.495 62.4102 131.495 61.8221C131.495 61.2758 131.275 60.8417 130.836 60.5195C130.397 60.1974 129.799 60.0364 129.04 60.0364H127.835ZM124.332 56.7802H129.084C130.974 56.7802 132.447 57.2634 133.503 58.2298C134.559 59.1821 135.087 60.3794 135.087 61.8221C135.087 63.5447 134.507 64.8331 133.346 65.6875C132.201 66.5417 130.713 66.9689 128.884 66.9689H127.835V71.7376H124.332V56.7802ZM144.682 56.5282C146.928 56.5282 148.825 57.2774 150.372 58.776C151.934 60.2744 152.715 62.1022 152.715 64.2589C152.715 66.4297 151.934 68.2573 150.372 69.7419C148.839 71.2263 146.943 71.9687 144.682 71.9687C142.45 71.9687 140.554 71.2263 138.992 69.7419C137.43 68.2573 136.649 66.4297 136.649 64.2589C136.649 62.1022 137.43 60.2744 138.992 58.776C140.554 57.2774 142.45 56.5282 144.682 56.5282ZM144.682 59.8263C143.373 59.8263 142.302 60.2604 141.469 61.1288C140.636 61.997 140.219 63.0404 140.219 64.2589C140.219 65.4773 140.636 66.5207 141.469 67.3891C142.316 68.2433 143.387 68.6705 144.682 68.6705C145.991 68.6705 147.054 68.2433 147.873 67.3891C148.706 66.5207 149.122 65.4773 149.122 64.2589C149.122 63.0404 148.706 61.997 147.873 61.1288C147.04 60.2604 145.976 59.8263 144.682 59.8263ZM155.236 56.7802H158.784V63.3766C158.784 63.5165 158.776 63.7301 158.762 64.0174C158.747 64.3045 158.724 64.672 158.695 65.1201H158.806C159.044 64.756 159.245 64.4514 159.409 64.2064C159.572 63.9613 159.706 63.7687 159.81 63.6287L165.054 56.7802H167.933V71.7376H164.407V64.637C164.407 64.245 164.429 63.7128 164.474 63.0404H164.385C164.176 63.3626 163.987 63.6497 163.816 63.9018C163.645 64.1539 163.477 64.3779 163.313 64.574L157.802 71.7376H155.236V56.7802ZM165.879 52.9148C165.404 53.9233 164.786 54.6515 164.028 55.0997C163.269 55.5478 162.481 55.7718 161.662 55.7718C160.844 55.7718 160.056 55.5478 159.297 55.0997C158.538 54.6515 157.921 53.9233 157.445 52.9148L159.431 52.0326C159.758 52.7048 160.1 53.139 160.457 53.335C160.814 53.531 161.216 53.6291 161.662 53.6291C161.856 53.6291 162.046 53.6151 162.231 53.5871C162.417 53.5592 162.603 53.4925 162.789 53.3875C162.975 53.2825 163.161 53.1214 163.347 52.9044C163.533 52.6872 163.73 52.3896 163.938 52.0115L165.879 52.9148Z" fill="#333333"/>
<path fill-rule="evenodd" clip-rule="evenodd" d="M47.3908 12.7654L44.321 14.7771C44.3899 15.0742 46.5215 18.2217 46.9716 18.9118C47.2932 19.4048 49.5851 22.8885 49.7736 23.0066C50.3243 22.853 52.2719 21.3623 52.8156 21.0165C52.8064 20.7087 52.1419 19.2679 53.4373 18.3886C54.8027 17.4618 55.8449 18.6827 56.1034 18.8467C56.7032 18.6334 57.1114 18.152 57.669 17.8873L59.7702 21.2966C60.0229 21.7199 61.5039 24.205 62.307 25.4884L67.1254 22.3661C65.7585 20.3548 62.2406 15.5072 62.077 14.9811L63.5478 13.9547C63.2353 13.0835 62.7911 12.5988 63.0546 11.2867C63.2773 10.1799 63.9245 9.46715 64.5845 9.02683C65.2995 8.5502 66.1394 8.26926 67.2096 8.45286C68.5096 8.67583 68.9681 9.44328 69.5144 9.89502C69.5948 8.92267 68.9191 7.64058 68.2016 6.89529C65.7327 4.33093 60.3279 4.89825 57.2436 5.94425C55.1494 6.65442 53.1653 7.95509 51.6633 9.46851C49.968 11.1764 50.9193 10.4199 50.9034 11.6449C50.8843 13.1252 49.3908 13.9725 48.1557 13.3356C47.7407 13.1215 47.739 12.9309 47.3908 12.7654Z" fill="#333333"/>
<path fill-rule="evenodd" clip-rule="evenodd" d="M81.724 50.144H74.7181V43.1501H81.724V50.144Z" fill="#333333"/>
<path fill-rule="evenodd" clip-rule="evenodd" d="M91.8027 43.1501V50.144H84.7964V43.1501H91.8027Z" fill="#F2C94C"/>
<path fill-rule="evenodd" clip-rule="evenodd" d="M84.7964 33.0886H91.8027V40.0829H84.7964V33.0886Z" fill="#333333"/>
<path fill-rule="evenodd" clip-rule="evenodd" d="M74.7181 33.0886H81.724V40.0829H74.7181V33.0886Z" fill="#F2C94C"/>
<path fill-rule="evenodd" clip-rule="evenodd" d="M101.567 20.2884C101.061 20.1893 100.712 19.4955 100.171 19.8787C100.095 19.9324 99.4873 20.7948 98.7094 21.9218L102.981 24.69C103.662 23.6957 104.287 22.7506 104.31 22.5929C104.385 22.0554 103.729 21.7984 103.228 21.4334C103.496 21.0103 104.112 21.385 104.52 21.5283C107.808 22.6841 111.118 23.8029 114.368 24.982C114.819 25.1459 115.271 25.3 115.752 25.4691C117.236 25.9902 117.237 25.9803 118.194 24.5811L121.295 20.0601C122.594 18.1795 118.388 17.7641 119.05 16.5495C119.323 16.048 119.8 15.535 120.074 15.0294C120.295 14.6232 120.188 14.1041 119.808 13.8007C119.373 13.4526 118.767 13.0787 118.294 12.7586L106.226 4.52021C105.223 3.83953 104.214 3.15646 103.217 2.46692C101.815 1.49695 101.635 1.9983 100.739 3.29182C100.415 3.75941 97.8623 7.43284 97.6799 7.77258C97.4383 8.22313 97.5483 8.74203 97.9451 9.0487C98.8298 9.73262 100.007 10.468 100.954 11.1047C101.971 11.7876 102.989 12.4859 103.997 13.1822L114.543 20.382C115.123 20.7785 115.454 21.0302 115.958 20.7969C116.379 20.6017 116.713 19.9461 117.01 19.5168C117.435 18.9014 117.581 18.5796 118.252 19.041C119.268 19.7381 119.191 19.6014 117.666 21.7885C117.325 22.2769 116.997 22.7968 116.648 23.2751C116.339 23.6994 116.067 23.4719 115.292 23.1986L106.837 20.2314C105.94 19.9188 104.959 19.5678 104.034 19.2468C103.471 19.0511 103.133 18.8496 102.665 19.032C102.167 19.2253 101.956 19.9277 101.567 20.2884Z" fill="#333333"/>
<path fill-rule="evenodd" clip-rule="evenodd" d="M45.1429 38.6755L83.2602 13.9753L121.378 38.6755C121.63 38.839 121.771 39.0976 121.771 39.3981V46.7626C121.771 47.0866 121.605 47.3648 121.32 47.5194C121.034 47.6742 120.71 47.6616 120.438 47.4852L83.2602 23.3937L46.0823 47.4852C45.8099 47.6616 45.4861 47.6742 45.2006 47.5194C44.9154 47.3648 44.7496 47.0866 44.7496 46.7626V39.3981C44.7496 39.0976 44.8903 38.839 45.1429 38.6755Z" fill="#F2994A"/>
</svg>
