<svg width="88" height="88" viewBox="0 0 88 88" fill="none" xmlns="http://www.w3.org/2000/svg">
<path d="M85.8534 2.53032C84.8638 0.919659 83.0934 -0.0484812 81.2269 0.00187283C79.2967 0.0542409 77.5907 1.19224 76.5467 3.12181L59.3149 34.9684C59.1094 34.959 58.9033 34.9536 58.6952 34.9536C54.3909 34.9536 50.2115 37.0651 48.0483 40.3327C46.5035 42.6645 43.9831 45.1681 40.9746 47.583C40.9135 47.6253 40.8558 47.6723 40.8007 47.7227C34.1191 53.0461 25.107 57.9117 19.0155 59.5169C18.269 59.7143 17.5674 60.4367 17.6842 61.6063C17.8594 63.3653 20.128 68.2953 24.8183 73.3307C24.821 73.3334 24.8237 73.3368 24.8264 73.3395C25.4662 74.0256 26.1497 74.7138 26.8802 75.3959C29.8396 78.16 34.0358 81.2605 39.6869 83.709C39.8212 83.7882 39.9628 83.848 40.1092 83.8876C45.0613 85.9776 51.1045 87.5621 58.3884 87.9972C58.4233 87.9992 58.4575 87.9999 58.4917 87.9999C59.2215 87.9999 59.8788 87.54 60.1239 86.8444C60.418 86.0092 66.0166 70.0322 68.5169 56.495C68.5189 56.4823 68.5216 56.4695 68.5236 56.4561C69.142 53.1005 69.5703 49.8946 69.6784 47.1091C69.7771 44.5853 69.3273 42.3388 68.3652 40.4757L85.8508 8.16526C86.882 6.26054 86.8833 4.20677 85.8534 2.53032ZM58.6952 38.4153C60.9302 38.4153 62.8893 39.1733 64.212 40.5489C64.4731 40.8202 64.7088 41.1142 64.9189 41.4291C64.931 41.4472 64.9431 41.4654 64.9559 41.4835C65.8824 42.8981 66.3074 44.7384 66.2194 46.9741C66.1449 48.8936 65.9032 51.0461 65.5453 53.3247L50.0517 43.4742C50.3693 43.0619 50.6647 42.651 50.9346 42.2442C52.4748 39.9185 55.5209 38.4153 58.6952 38.4153ZM57.2866 84.4489C51.9592 84.0158 47.3776 82.9269 43.4668 81.4901C45.969 78.4756 49.0098 74.311 52.2693 68.1188C52.7145 67.2728 52.3895 66.2261 51.5436 65.781C50.6976 65.3352 49.6509 65.6608 49.2058 66.5061C45.7797 73.0152 42.6148 77.1731 40.1085 80.1023C35.4363 77.9472 31.9142 75.3375 29.3797 72.993C29.2515 72.8742 29.1266 72.756 29.0018 72.6379C33.6444 70.2752 38.565 67.4823 43.7394 63.1841C44.4745 62.5731 44.5752 61.4821 43.9643 60.7463C43.3533 60.0118 42.2623 59.9104 41.5271 60.5213C36.2541 64.9008 31.3872 67.5749 26.4948 70.0255C23.6662 66.784 22.1644 63.9239 21.5198 62.3878C27.5932 60.4327 35.625 56.0707 42.0408 51.136L47.0036 54.4386C47.2984 54.6353 47.6321 54.7286 47.961 54.7286C48.521 54.7286 49.0702 54.4574 49.4039 53.9565C49.9336 53.1609 49.7174 52.086 48.9218 51.557L44.8492 48.8466C45.8925 47.9416 46.8667 47.0278 47.7516 46.1141L64.8901 57.0107C64.598 58.4964 64.2697 60.0104 63.9179 61.5278L59.9957 58.9167C59.2001 58.387 58.1258 58.6025 57.5961 59.3981C57.0664 60.1937 57.2819 61.2686 58.0775 61.7983L63.0471 65.1069C60.9047 73.5483 58.2964 81.4686 57.2866 84.4489ZM82.8067 6.51701L66.0314 37.5143C65.1103 36.7234 64.0428 36.1044 62.8692 35.6733L79.5914 4.76939C79.907 4.18596 80.4635 3.4857 81.3216 3.4622C81.9473 3.44944 82.5643 3.79051 82.9034 4.34239C83.2793 4.95402 83.2458 5.70597 82.8067 6.51701Z" fill="#F2C94C"/>
<path d="M14.0098 59.1879C14.0098 55.3227 10.8684 52.1772 7.00726 52.1772C3.14343 52.1772 0 55.3227 0 59.1879C0 63.0537 3.14343 66.1992 7.00726 66.1992C10.8684 66.1992 14.0098 63.0537 14.0098 59.1879ZM3.46167 59.1879C3.46167 57.2314 5.05219 55.6396 7.00726 55.6396C8.95966 55.6396 10.5482 57.2314 10.5482 59.1879C10.5482 61.145 8.95966 62.7368 7.00726 62.7368C5.05219 62.7368 3.46167 61.145 3.46167 59.1879Z" fill="#F2C94C"/>
<path d="M11.568 70.6611C8.88245 70.6611 6.69775 72.8472 6.69775 75.5341C6.69775 78.223 8.88245 80.4117 11.568 80.4117C14.2535 80.4117 16.4389 78.2236 16.4389 75.5341C16.4382 72.8472 14.2535 70.6611 11.568 70.6611ZM11.568 76.9493C10.7912 76.9493 10.1594 76.3142 10.1594 75.5341C10.1594 74.7559 10.7912 74.1235 11.568 74.1235C12.3448 74.1235 12.9766 74.7559 12.9766 75.5341C12.9766 76.3142 12.3448 76.9493 11.568 76.9493Z" fill="#F2C94C"/>
<path d="M18.5922 49.8342C21.1656 49.8342 23.2584 47.7395 23.2584 45.166C23.2584 42.5892 21.1656 40.4932 18.5922 40.4932C16.0195 40.4932 13.9268 42.5892 13.9268 45.166C13.9261 47.7395 16.0195 49.8342 18.5922 49.8342ZM18.5922 43.9548C19.2562 43.9548 19.7967 44.498 19.7967 45.166C19.7967 45.8307 19.2562 46.3718 18.5922 46.3718C17.9282 46.3718 17.3884 45.8307 17.3884 45.166C17.3884 44.498 17.9282 43.9548 18.5922 43.9548Z" fill="#F2C94C"/>
<path d="M54.4503 55.2302L54.4208 55.2107C53.6225 54.6844 52.549 54.9052 52.0233 55.7035C51.4969 56.5018 51.7178 57.5754 52.5161 58.1011L52.545 58.1205C52.8383 58.3139 53.1693 58.4065 53.4956 58.4065C54.0582 58.4065 54.6101 58.1326 54.9425 57.6277C55.4688 56.8294 55.2486 55.7559 54.4503 55.2302Z" fill="#F2C94C"/>
</svg>
