<svg width="36" height="36" viewBox="0 0 36 36" fill="none" xmlns="http://www.w3.org/2000/svg">
<rect width="36" height="36" fill="#E5E5E5"/>
<g id="&#208;&#158; &#208;&#186;&#208;&#190;&#208;&#188;&#208;&#191;&#208;&#176;&#208;&#189;&#208;&#184;&#208;&#184;" clip-path="url(#clip0_0_1)">
<rect width="1440" height="7528" transform="translate(-842 -3526)" fill="white"/>
<g id="&#208;&#160;&#208;&#176;&#208;&#177;&#208;&#190;&#209;&#130;&#209;&#139;">
<g id="&#208;&#160;&#208;&#176;&#208;&#177;&#208;&#190;&#209;&#130;&#209;&#139;_2">
<g id="8">
<g id="Rectangle 15" filter="url(#filter0_d_0_1)">
<rect x="-329" y="-510" width="414" height="608" rx="20" fill="white"/>
</g>
<g id="&#208;&#148;&#208;&#176;&#208;&#189;&#208;&#189;&#209;&#139;&#208;&#181;">
<g id="04">
<g id="SVG">
<path id="Vector" d="M31.075 33.7357H3.35012C2.7199 33.7351 2.11568 33.4844 1.67006 33.0388C1.22443 32.5932 0.973788 31.989 0.973145 31.3587V9.30485C0.973145 9.17582 1.0244 9.05208 1.11563 8.96085C1.20687 8.86961 1.33061 8.81836 1.45963 8.81836H31.075C31.7052 8.81913 32.3093 9.06981 32.7549 9.51541C33.2005 9.96101 33.4512 10.5652 33.452 11.1953V17.7045C33.452 17.8335 33.4007 17.9573 33.3095 18.0485C33.2182 18.1398 33.0945 18.191 32.9655 18.191C32.8364 18.191 32.7127 18.1398 32.6215 18.0485C32.5302 17.9573 32.479 17.8335 32.479 17.7045V11.1953C32.4786 10.8231 32.3306 10.4662 32.0673 10.203C31.8041 9.93976 31.4472 9.79172 31.075 9.79133H1.94612V31.3587C1.94663 31.7309 2.09472 32.0878 2.35791 32.3509C2.6211 32.6141 2.97791 32.7622 3.35012 32.7627H31.075C31.4472 32.7622 31.804 32.6141 32.0672 32.3509C32.3304 32.0878 32.4785 31.7309 32.479 31.3587V24.85C32.479 24.721 32.5302 24.5973 32.6215 24.506C32.7127 24.4148 32.8364 24.3635 32.9655 24.3635C33.0945 24.3635 33.2182 24.4148 33.3095 24.506C33.4007 24.5973 33.452 24.721 33.452 24.85V31.3587C33.4512 31.9889 33.2005 32.5931 32.7549 33.0387C32.3093 33.4843 31.7052 33.7349 31.075 33.7357Z" fill="#F2994A" stroke="#F2994A" stroke-width="0.3"/>
<path id="Vector_2" d="M33.7267 25.3343H28.0295C26.9534 25.3343 25.9214 24.9069 25.1605 24.146C24.3996 23.3851 23.9722 22.3531 23.9722 21.277C23.9722 20.201 24.3996 19.169 25.1605 18.4081C25.9214 17.6472 26.9534 17.2197 28.0295 17.2197H33.7267C34.0715 17.2202 34.402 17.3575 34.6458 17.6013C34.8896 17.8452 35.0267 18.1758 35.0271 18.5206V24.0325C35.0271 24.3775 34.8901 24.7084 34.6463 24.9525C34.4025 25.1966 34.0717 25.3339 33.7267 25.3343ZM28.0295 18.1946C27.6244 18.1946 27.2233 18.2744 26.8491 18.4294C26.4749 18.5844 26.1349 18.8116 25.8485 19.098C25.5621 19.3844 25.3349 19.7244 25.1799 20.0986C25.0249 20.4729 24.9451 20.8739 24.9451 21.279C24.9451 21.684 25.0249 22.0851 25.1799 22.4593C25.3349 22.8335 25.5621 23.1735 25.8485 23.4599C26.1349 23.7463 26.4749 23.9735 26.8491 24.1285C27.2233 24.2835 27.6244 24.3633 28.0295 24.3633H33.7267C33.77 24.3632 33.8128 24.3546 33.8527 24.3379C33.8926 24.3212 33.9288 24.2968 33.9593 24.266C33.9897 24.2353 34.0138 24.1988 34.03 24.1587C34.0463 24.1187 34.0545 24.0757 34.0541 24.0325V18.5206C34.054 18.4338 34.0194 18.3505 33.9581 18.289C33.8967 18.2276 33.8135 18.193 33.7267 18.1927L28.0295 18.1946Z" fill="#F2994A" stroke="#F2994A" stroke-width="0.3"/>
<path id="Vector_3" d="M1.45955 9.79153C1.34439 9.79151 1.23297 9.75064 1.14512 9.67619C1.05726 9.60174 0.998665 9.49854 0.979751 9.38494C0.960838 9.27135 0.982835 9.15473 1.04183 9.05582C1.10082 8.95692 1.19299 8.88216 1.30193 8.84483L19.946 2.45775C20.4788 2.27515 21.0474 2.22236 21.6046 2.30376C22.1618 2.38516 22.6915 2.59841 23.1497 2.92576C23.6079 3.25312 23.9814 3.68514 24.239 4.18588C24.4966 4.68663 24.631 5.24164 24.6309 5.80478V9.30504C24.6309 9.43407 24.5797 9.55781 24.4884 9.64904C24.3972 9.74028 24.2735 9.79153 24.1444 9.79153C24.0154 9.79153 23.8917 9.74028 23.8004 9.64904C23.7092 9.55781 23.6579 9.43407 23.6579 9.30504V5.80478C23.6579 5.39652 23.5604 4.99417 23.3736 4.63116C23.1868 4.26815 22.9161 3.95497 22.5839 3.71765C22.2517 3.48033 21.8677 3.32573 21.4637 3.26668C21.0597 3.20764 20.6475 3.24586 20.2613 3.37818L1.61717 9.76526C1.56646 9.78271 1.51319 9.79159 1.45955 9.79153Z" fill="#F2994A" stroke="#F2994A" stroke-width="0.3"/>
<path id="Vector_4" d="M28.2201 23.0237C27.8746 23.0236 27.5369 22.9211 27.2497 22.7291C26.9625 22.5371 26.7386 22.2642 26.6065 21.945C26.4743 21.6257 26.4398 21.2745 26.5073 20.9356C26.5747 20.5968 26.7411 20.2856 26.9855 20.0413C27.2298 19.797 27.5411 19.6307 27.88 19.5633C28.2188 19.496 28.5701 19.5306 28.8893 19.6628C29.2084 19.7951 29.4813 20.019 29.6732 20.3062C29.8651 20.5935 29.9676 20.9313 29.9676 21.2768C29.9672 21.74 29.7829 22.1842 29.4553 22.5118C29.1277 22.8393 28.6834 23.0235 28.2201 23.0237ZM28.2201 20.5032C28.067 20.5032 27.9174 20.5486 27.7901 20.6337C27.6628 20.7188 27.5636 20.8397 27.505 20.9812C27.4464 21.1226 27.4311 21.2783 27.461 21.4284C27.4909 21.5786 27.5647 21.7165 27.673 21.8247C27.7813 21.9329 27.9192 22.0066 28.0694 22.0364C28.2196 22.0662 28.3752 22.0508 28.5167 21.9922C28.6581 21.9335 28.7789 21.8342 28.8639 21.7069C28.9489 21.5796 28.9942 21.4299 28.9941 21.2768C28.994 21.0716 28.9124 20.8748 28.7672 20.7298C28.6221 20.5847 28.4253 20.5032 28.2201 20.5032Z" fill="#F2994A"/>
</g>
</g>
</g>
</g>
</g>
</g>
</g>
<defs>
<filter id="filter0_d_0_1" x="-349" y="-526" width="454" height="648" filterUnits="userSpaceOnUse" color-interpolation-filters="sRGB">
<feFlood flood-opacity="0" result="BackgroundImageFix"/>
<feColorMatrix in="SourceAlpha" type="matrix" values="0 0 0 0 0 0 0 0 0 0 0 0 0 0 0 0 0 0 127 0" result="hardAlpha"/>
<feOffset dy="4"/>
<feGaussianBlur stdDeviation="10"/>
<feComposite in2="hardAlpha" operator="out"/>
<feColorMatrix type="matrix" values="0 0 0 0 0.2 0 0 0 0 0.2 0 0 0 0 0.2 0 0 0 0.15 0"/>
<feBlend mode="normal" in2="BackgroundImageFix" result="effect1_dropShadow_0_1"/>
<feBlend mode="normal" in="SourceGraphic" in2="effect1_dropShadow_0_1" result="shape"/>
</filter>
<clipPath id="clip0_0_1">
<rect width="1440" height="7528" fill="white" transform="translate(-842 -3526)"/>
</clipPath>
</defs>
</svg>
