<svg width="107" height="107" viewBox="0 0 107 107" fill="none" xmlns="http://www.w3.org/2000/svg">
<g clip-path="url(#clip0_117_2835)">
<path d="M84.4855 65.9159C82.3857 61.5378 74.8733 55.461 67.6153 49.5894C63.567 46.3169 59.7418 43.2229 57.3032 40.7842C56.6923 40.169 55.7784 39.9728 54.9715 40.2626C53.4691 40.8066 52.5417 41.2256 51.8106 41.551C50.6961 42.0503 50.3216 42.2198 48.819 42.3713C48.1547 42.4381 47.5574 42.7949 47.1873 43.3476C44.0351 48.06 40.7716 47.6588 38.5915 46.9278C37.896 46.696 37.7713 46.3971 37.7044 46.1119C37.2363 44.1547 39.5859 39.5983 42.6308 36.5531C49.8756 29.3039 53.6117 27.4893 61.5029 31.0159C70.4552 35.0194 79.4254 38.1538 79.5146 38.1849C80.6873 38.5905 81.9489 37.9753 82.3545 36.8117C82.7558 35.648 82.1449 34.3774 80.9813 33.9718C80.8921 33.9406 72.1003 30.8688 63.3263 26.9409C53.1034 22.371 47.4947 25.3804 39.483 33.3966C36.4335 36.4461 32.2917 42.6164 33.3617 47.1418C33.8208 49.0678 35.1763 50.4945 37.1913 51.1586C42.2427 52.8261 46.8525 51.2299 50.2855 46.6736C51.7032 46.4552 52.4746 46.1342 53.6336 45.6126C54.0526 45.4254 54.5431 45.207 55.1941 44.9439C57.7443 47.338 61.1861 50.1244 64.8107 53.0535C71.3645 58.3544 78.7966 64.3644 80.4685 67.8419C81.2933 69.5583 80.406 70.6774 79.8041 71.19C78.9213 71.948 77.7132 72.1887 77.0578 71.7294C76.3356 71.2345 75.3949 71.2034 74.6503 71.6491C73.9013 72.0949 73.4823 72.9375 73.5759 73.8025C73.7274 75.2203 72.4301 76.0318 71.8683 76.3126C70.4416 77.0349 68.9526 76.9101 68.3952 76.3929C67.771 75.8134 66.8748 75.6439 66.0813 75.9381C65.2878 76.2368 64.7348 76.968 64.6546 77.815C64.5208 79.2773 63.4375 80.6817 62.0241 81.23C61.342 81.4885 60.3522 81.6447 59.4651 80.8332C58.9123 80.3339 58.1454 80.1421 57.4277 80.3159C56.7011 80.4942 56.117 81.0204 55.8628 81.7203C55.7782 81.9433 55.5863 82.4783 53.4998 82.4783C52.0152 82.4783 49.3446 81.4752 48.0385 80.6102C46.4736 79.5803 36.6607 72.2598 28.1856 65.1621C26.9952 64.1589 24.9354 62.0099 23.1164 60.1107C21.5024 58.4254 20.0268 56.8963 19.2688 56.2543C18.3192 55.4518 16.9148 55.5722 16.1257 56.5174C15.3322 57.4581 15.448 58.867 16.3888 59.6605C17.0799 60.2447 18.4174 61.6578 19.8931 63.1959C21.8815 65.2734 23.9367 67.4224 25.3189 68.5817C33.6204 75.5323 43.5982 83.0357 45.5864 84.3418C47.2272 85.4208 50.7626 86.9366 53.5001 86.9366C55.6979 86.9366 57.3878 86.4327 58.5602 85.4475C60.1295 86.0584 61.9129 86.0628 63.6293 85.3941C65.6579 84.6093 67.3252 83.0267 68.2704 81.1097C70.027 81.4842 72.0378 81.2211 73.8656 80.3028C75.6535 79.4023 76.9462 78.0246 77.5882 76.415C79.3627 76.5087 81.1905 75.88 82.7019 74.5827C85.2613 72.3938 85.9656 68.9877 84.4855 65.9159Z" fill="#F2C94C"/>
<path d="M44.5832 28.9785H24.5207C23.2902 28.9785 22.2915 29.9773 22.2915 31.2078C22.2915 32.4383 23.2902 33.437 24.5207 33.437H44.5832C45.8137 33.437 46.8125 32.4383 46.8125 31.2078C46.8125 29.9773 45.8137 28.9785 44.5832 28.9785Z" fill="#F2C94C"/>
<path d="M91.0169 61.1719C90.3258 60.151 88.9437 59.8701 87.9229 60.5656L81.4048 64.9436C80.384 65.6301 80.1119 67.0167 80.7986 68.0376C81.231 68.6752 81.9355 69.023 82.6533 69.023C83.0769 69.023 83.5093 68.9026 83.8928 68.6441L90.4108 64.2661C91.4315 63.5794 91.7034 62.193 91.0169 61.1719Z" fill="#F2C94C"/>
<path d="M77.1783 71.8098C75.5823 70.5525 68.4444 63.2454 64.0307 58.6444C63.1791 57.7526 61.7659 57.7215 60.8786 58.5775C59.9868 59.4291 59.9601 60.8422 60.8117 61.7296C61.9576 62.9244 72.0645 73.4595 74.4141 75.3142C74.8197 75.6352 75.3102 75.7913 75.7917 75.7913C76.4471 75.7913 77.1025 75.4971 77.5482 74.9397C78.3108 73.9765 78.1459 72.5721 77.1783 71.8098Z" fill="#F2C94C"/>
<path d="M68.2703 76.2814C65.5997 74.1458 58.89 67.0169 57.3741 65.3674C56.5358 64.4579 55.1315 64.4044 54.222 65.2336C53.3168 66.0673 53.2546 67.4806 54.0882 68.3857C54.1685 68.4704 62.1757 77.1152 65.4837 79.7635C65.8939 80.0888 66.3888 80.2494 66.8747 80.2494C67.5257 80.2494 68.1765 79.9595 68.6179 79.4157C69.385 78.4525 69.2289 77.0481 68.2703 76.2814Z" fill="#F2C94C"/>
<path d="M59.3985 80.7712C56.2196 78.0918 49.715 71.168 48.4443 69.8081C47.6017 68.9076 46.1883 68.8585 45.2922 69.7011C44.3917 70.5437 44.347 71.9525 45.1852 72.8532C47.0132 74.8103 53.237 81.4088 56.5228 84.1818C56.9418 84.534 57.4501 84.7078 57.9583 84.7078C58.5914 84.7078 59.2246 84.436 59.666 83.9143C60.4595 82.9691 60.3391 81.5647 59.3985 80.7712Z" fill="#F2C94C"/>
<path d="M26.0545 25.1312C22.2336 21.511 6.955 20.3384 2.36299 20.0665C1.72997 20.0354 1.14586 20.2448 0.700098 20.6684C0.254125 21.0874 0 21.6759 0 22.2911V62.4161C0 63.6466 0.998736 64.6454 2.22924 64.6454H15.6042C16.5672 64.6454 17.4232 64.0257 17.7219 63.1073C18.0473 62.1085 25.7291 38.533 26.741 26.9413C26.7991 26.2635 26.5494 25.5948 26.0545 25.1312ZM13.9769 60.1871H4.45826V24.6809C11.6229 25.247 19.3536 26.4775 22.1624 27.8418C20.981 37.6055 15.6354 54.9529 13.9769 60.1871Z" fill="#F2C94C"/>
<path d="M104.771 24.52C87.2674 24.52 77.5571 29.0006 77.1515 29.1879C76.572 29.4598 76.1394 29.9636 75.9611 30.5745C75.7828 31.1854 75.8719 31.8407 76.2062 32.3845C78.9615 36.8206 87.5884 61.4574 89.2469 67.4672C89.5144 68.4345 90.3927 69.1033 91.3959 69.1033H104.771C106.001 69.1033 107 68.1046 107 66.8741V26.749C107 25.5142 106.001 24.52 104.771 24.52ZM102.542 64.645H93.0633C90.9501 57.7613 84.7083 39.812 81.2265 32.3935C84.6281 31.2389 91.9354 29.2548 102.542 29.0052V64.645Z" fill="#F2C94C"/>
</g>
<defs>
<clipPath id="clip0_117_2835">
<rect width="107" height="107" fill="white"/>
</clipPath>
</defs>
</svg>
