<svg width="88" height="88" viewBox="0 0 88 88" fill="none" xmlns="http://www.w3.org/2000/svg">
<path d="M16.4998 36.6667H56.8332C57.3194 36.6667 57.7857 36.4735 58.1295 36.1297C58.4734 35.7859 58.6665 35.3196 58.6665 34.8333C58.6665 34.3471 58.4734 33.8808 58.1295 33.537C57.7857 33.1932 57.3194 33 56.8332 33H16.4998C16.0136 33 15.5473 33.1932 15.2035 33.537C14.8597 33.8808 14.6665 34.3471 14.6665 34.8333C14.6665 35.3196 14.8597 35.7859 15.2035 36.1297C15.5473 36.4735 16.0136 36.6667 16.4998 36.6667Z" fill="#F2C94C"/>
<path d="M45.8332 42.1665H16.4998C16.0136 42.1665 15.5473 42.3597 15.2035 42.7035C14.8597 43.0473 14.6665 43.5136 14.6665 43.9998C14.6665 44.4861 14.8597 44.9524 15.2035 45.2962C15.5473 45.64 16.0136 45.8332 16.4998 45.8332H45.8332C46.3194 45.8332 46.7857 45.64 47.1295 45.2962C47.4734 44.9524 47.6665 44.4861 47.6665 43.9998C47.6665 43.5136 47.4734 43.0473 47.1295 42.7035C46.7857 42.3597 46.3194 42.1665 45.8332 42.1665Z" fill="#F2C94C"/>
<path d="M16.4998 27.5002H56.8332C57.3194 27.5002 57.7857 27.307 58.1295 26.9632C58.4734 26.6194 58.6665 26.1531 58.6665 25.6668C58.6665 25.1806 58.4734 24.7143 58.1295 24.3705C57.7857 24.0267 57.3194 23.8335 56.8332 23.8335H16.4998C16.0136 23.8335 15.5473 24.0267 15.2035 24.3705C14.8597 24.7143 14.6665 25.1806 14.6665 25.6668C14.6665 26.1531 14.8597 26.6194 15.2035 26.9632C15.5473 27.307 16.0136 27.5002 16.4998 27.5002Z" fill="#F2C94C"/>
<path d="M16.4998 18.3332H56.8332C57.3194 18.3332 57.7857 18.14 58.1295 17.7962C58.4734 17.4524 58.6665 16.9861 58.6665 16.4998C58.6665 16.0136 58.4734 15.5473 58.1295 15.2035C57.7857 14.8597 57.3194 14.6665 56.8332 14.6665H16.4998C16.0136 14.6665 15.5473 14.8597 15.2035 15.2035C14.8597 15.5473 14.6665 16.0136 14.6665 16.4998C14.6665 16.9861 14.8597 17.4524 15.2035 17.7962C15.5473 18.14 16.0136 18.3332 16.4998 18.3332Z" fill="#F2C94C"/>
<path d="M42.1665 73.3332C41.2132 73.3332 40.4432 69.6665 37.0332 69.6665C33.6232 69.6665 32.8348 73.3332 31.8815 73.3332C30.9282 73.3332 30.1765 69.6665 26.7665 69.6665C23.3565 69.6665 22.5682 73.3332 21.6332 73.3332C20.6982 73.3332 19.9282 69.6665 16.4998 69.6665C16.0136 69.6665 15.5473 69.8597 15.2035 70.2035C14.8597 70.5473 14.6665 71.0136 14.6665 71.4998C14.6665 71.9861 14.8597 72.4524 15.2035 72.7962C15.5473 73.14 16.0136 73.3332 16.4998 73.3332C17.4532 73.3332 18.2048 76.9998 21.6332 76.9998C25.0615 76.9998 25.8132 73.3332 26.7665 73.3332C27.7198 73.3332 28.4715 76.9998 31.8815 76.9998C35.2915 76.9998 36.0798 73.3332 37.0332 73.3332C37.9865 73.3332 38.7382 76.9998 42.1665 76.9998C42.6527 76.9998 43.1191 76.8067 43.4629 76.4629C43.8067 76.1191 43.9998 75.6527 43.9998 75.1665C43.9998 74.6803 43.8067 74.214 43.4629 73.8701C43.1191 73.5263 42.6527 73.3332 42.1665 73.3332Z" fill="#F2C94C"/>
<path d="M82.4998 18.3333C82.9861 18.3333 83.4524 18.1402 83.7962 17.7964C84.14 17.4525 84.3332 16.9862 84.3332 16.5V9.16667C84.3332 6.73551 83.3674 4.40394 81.6483 2.68485C79.9292 0.965771 77.5977 0 75.1665 0L12.8332 0C10.402 0 8.07044 0.965771 6.35136 2.68485C4.63227 4.40394 3.6665 6.73551 3.6665 9.16667V86.1667C3.6665 86.6529 3.85966 87.1192 4.20347 87.463C4.54729 87.8068 5.01361 88 5.49984 88H67.8332C68.3194 88 68.7857 87.8068 69.1295 87.463C69.4734 87.1192 69.6665 86.6529 69.6665 86.1667V56.8333L83.4715 33C83.9163 32.2696 84.2106 31.4576 84.3371 30.6118C84.4636 29.7661 84.4197 28.9035 84.2081 28.075C83.9965 27.2464 83.6214 26.4684 83.1049 25.7869C82.5883 25.1053 81.9407 24.5339 81.2002 24.1062C80.4597 23.6785 79.6411 23.4031 78.7926 23.2963C77.9441 23.1895 77.0828 23.2533 76.2594 23.4841C75.4359 23.7149 74.6669 24.1079 73.9975 24.6402C73.3281 25.1724 72.7719 25.8331 72.3615 26.5833L69.6665 31.1667V18.3333H82.4998ZM80.6665 9.16667V14.6667H69.6665V9.16667C69.6665 7.70797 70.246 6.30903 71.2774 5.27758C72.3089 4.24613 73.7078 3.66667 75.1665 3.66667C76.6252 3.66667 78.0241 4.24613 79.0556 5.27758C80.087 6.30903 80.6665 7.70797 80.6665 9.16667ZM65.9998 84.3333H7.33317V9.16667C7.33317 7.70797 7.91263 6.30903 8.94408 5.27758C9.97553 4.24613 11.3745 3.66667 12.8332 3.66667H67.8332C65.2848 7.00333 65.9998 6.63667 65.9998 37.455L51.7365 62.1683C51.4248 62.7 51.5532 62.1683 50.8748 73.1683C50.8598 73.4182 50.8961 73.6684 50.9815 73.9037C51.0669 74.139 51.1996 74.3543 51.3713 74.5364C51.5431 74.7185 51.7503 74.8634 51.9802 74.9624C52.2101 75.0613 52.4579 75.1121 52.7082 75.1117C53.4965 75.1117 53.1115 75.1117 62.2782 69.1533C62.7548 68.8417 62.5715 69.025 65.9448 63.085L65.9998 84.3333ZM54.9998 64.6067C56.5786 64.8368 58.009 65.6636 58.9965 66.9167L54.6882 69.7583L54.9998 64.6067ZM61.2332 63.91C59.9374 62.5597 58.2841 61.6059 56.4665 61.16L71.3348 35.4933L76.1015 38.2433L61.2332 63.91ZM75.5332 28.27C75.8979 27.6379 76.4987 27.1766 77.2035 26.9875C77.9083 26.7984 78.6594 26.897 79.2915 27.2617C79.9236 27.6263 80.385 28.2272 80.5741 28.932C80.7632 29.6368 80.6645 30.3879 80.2998 31.02L78.0082 34.9983L73.3332 32.2483L75.5332 28.27Z" fill="#F2C94C"/>
</svg>
