<svg width="32" height="32" viewBox="0 0 32 32" fill="none" xmlns="http://www.w3.org/2000/svg">
<g clip-path="url(#clip0_117_2733)">
<path d="M31.3567 0H0.642991C0.287898 0 0 0.287898 0 0.642991V31.357C0 31.7121 0.287898 32 0.642991 32H19.3753C19.7304 32 20.0182 31.7121 20.0182 31.357C20.0182 31.0019 19.7304 30.714 19.3753 30.714H1.28598V15.7277H10.2544V21.8918C10.2544 22.2469 10.5423 22.5348 10.8974 22.5348C11.2525 22.5348 11.5404 22.2469 11.5404 21.8918V8.42889C11.5404 8.0738 11.2525 7.7859 10.8974 7.7859C10.5423 7.7859 10.2544 8.0738 10.2544 8.42889V14.4417H1.28598V1.28598H18.7325V9.33687C18.7325 9.69196 19.0203 9.97986 19.3753 9.97986H26.1753C26.5303 9.97986 26.8181 9.69196 26.8181 9.33687C26.8181 8.98178 26.5303 8.69388 26.1753 8.69388H20.0182V1.28598H30.7139V21.2489H19.3753C19.0203 21.2489 18.7325 21.5368 18.7325 21.8919C18.7325 22.247 19.0203 22.5349 19.3753 22.5349H30.7139V30.7143H26.1753C25.8202 30.7143 25.5324 31.0022 25.5324 31.3573C25.5324 31.7124 25.8202 32.0003 26.1753 32.0003H31.3567C31.7118 32.0003 31.9996 31.7124 31.9996 31.3573V0.642991C31.9997 0.287898 31.712 0 31.3567 0Z" fill="#F2994A"/>
</g>
<defs>
<clipPath id="clip0_117_2733">
<rect width="32" height="32" fill="white"/>
</clipPath>
</defs>
</svg>
