<svg width="88" height="88" viewBox="0 0 88 88" fill="none" xmlns="http://www.w3.org/2000/svg">
<path d="M69.7694 11.5297H61.8082V7.96809C61.8082 6.81578 60.5512 6.29206 59.3989 6.29206H53.2185C51.752 2.1019 48.0856 0.00682079 43.8954 0.00682079C39.7514 -0.148972 35.9821 2.39203 34.5723 6.29206H28.4966C27.3443 6.29206 26.192 6.81578 26.192 7.96809V11.5297H18.2305C13.5126 11.58 9.65291 15.3018 9.43115 20.0146V80.0385C9.43115 84.6478 13.6213 87.9998 18.2305 87.9998H69.7694C74.3786 87.9998 78.5688 84.6478 78.5688 80.0385V20.0148C78.347 15.3018 74.4873 11.58 69.7694 11.5297ZM30.382 10.4822H36.1435C37.1492 10.3595 37.957 9.59439 38.1339 8.59667C38.7543 5.89506 41.1244 3.95577 43.8954 3.88279C46.6407 3.966 48.9752 5.9113 49.5521 8.59667C49.7399 9.62887 50.6011 10.4038 51.6471 10.4822H57.6182V18.8625H30.382V10.4822ZM74.3786 80.0387C74.3786 82.3433 72.074 83.8098 69.7694 83.8098H18.2305C15.9259 83.8098 13.6213 82.3433 13.6213 80.0387V20.0148C13.8351 17.616 15.8225 15.7639 18.2305 15.72H26.1918V21.0625C26.3025 22.2362 27.319 23.1143 28.4964 23.0529H59.3987C60.5977 23.1185 61.6461 22.2525 61.808 21.0625V15.7198H69.7692C72.1771 15.7639 74.1647 17.6158 74.3784 20.0146V80.0387H74.3786Z" fill="#F2C94C"/>
<path d="M35.9339 46.8318C35.1481 46.0036 33.8436 45.9568 33.0007 46.7272L26.2964 53.1171L23.468 50.1839C22.6823 49.3556 21.3778 49.3091 20.5349 50.0792C19.7234 50.9294 19.7234 52.2669 20.5349 53.1171L24.8297 57.5168C25.2014 57.933 25.7384 58.1632 26.2962 58.1453C26.8488 58.1375 27.3759 57.9116 27.7627 57.5168L35.9335 49.765C36.7435 49.022 36.7976 47.7628 36.0544 46.9529C36.0163 46.9106 35.976 46.8703 35.9339 46.8318Z" fill="#F2C94C"/>
<path d="M65.9984 51.3364H41.9051C40.748 51.3364 39.8101 52.2744 39.8101 53.4315C39.8101 54.5886 40.748 55.5266 41.9051 55.5266H65.9984C67.1556 55.5266 68.0935 54.5886 68.0935 53.4315C68.0935 52.2744 67.1556 51.3364 65.9984 51.3364Z" fill="#F2C94C"/>
<path d="M35.9339 30.0712C35.1481 29.2429 33.8436 29.1962 33.0007 29.9665L26.2964 36.3564L23.468 33.4232C22.6823 32.595 21.3778 32.5482 20.5349 33.3186C19.7234 34.1687 19.7234 35.5063 20.5349 36.3564L24.8297 40.7561C25.2014 41.1724 25.7384 41.4026 26.2962 41.3847C26.8488 41.3769 27.3759 41.1509 27.7627 40.7561L35.9335 33.0044C36.7435 32.2613 36.7976 31.0021 36.0544 30.1923C36.0163 30.15 35.976 30.1097 35.9339 30.0712Z" fill="#F2C94C"/>
<path d="M65.9984 34.5757H41.9051C40.748 34.5757 39.8101 35.5137 39.8101 36.6708C39.8101 37.8279 40.748 38.7659 41.9051 38.7659H65.9984C67.1556 38.7659 68.0935 37.8279 68.0935 36.6708C68.0935 35.5137 67.1556 34.5757 65.9984 34.5757Z" fill="#F2C94C"/>
<path d="M35.9339 63.592C35.1481 62.7638 33.8436 62.7172 33.0007 63.4874L26.2964 69.8773L23.468 66.9441C22.6823 66.1158 21.3778 66.0693 20.5349 66.8394C19.7234 67.6896 19.7234 69.0271 20.5349 69.8773L24.8297 74.277C25.2014 74.6932 25.7384 74.9234 26.2962 74.9056C26.8488 74.8977 27.3759 74.6718 27.7627 74.277L35.9335 66.5252C36.7435 65.7822 36.7976 64.523 36.0544 63.7132C36.0163 63.671 35.976 63.6307 35.9339 63.592Z" fill="#F2C94C"/>
<path d="M65.9984 68.0967H41.9051C40.748 68.0967 39.8101 69.0346 39.8101 70.1918C39.8101 71.3489 40.748 72.2868 41.9051 72.2868H65.9984C67.1556 72.2868 68.0935 71.3489 68.0935 70.1918C68.0935 69.0346 67.1556 68.0967 65.9984 68.0967Z" fill="#F2C94C"/>
</svg>
