<svg width="88" height="88" viewBox="0 0 88 88" fill="none" xmlns="http://www.w3.org/2000/svg">
<g clip-path="url(#clip0_117_2829)">
<path d="M67.3285 22.8177C67.3285 25.4836 65.3876 27.105 63.9704 28.2948C63.4337 28.7455 62.4347 29.5678 62.4373 29.8749C62.447 31.0798 61.4783 32.0419 60.2732 32.0419C60.2672 32.0419 60.2611 32.0419 60.255 32.0419C59.0584 32.0419 58.0834 31.1093 58.0737 29.9105C58.0545 27.5476 59.7789 26.1326 61.1646 24.9692C62.2519 24.0562 62.9649 23.4138 62.9649 22.8259C62.9649 21.6359 61.9966 20.6676 60.8065 20.6676C59.616 20.6676 58.6475 21.6359 58.6475 22.8259C58.6475 24.031 57.6708 25.0078 56.4657 25.0078C55.2606 25.0078 54.2839 24.031 54.2839 22.8259C54.2839 19.2298 57.2097 16.304 60.8061 16.304C64.4027 16.3038 67.3285 19.2213 67.3285 22.8177ZM60.3154 34.056C59.1103 34.056 58.1818 35.0327 58.1818 36.2378V36.2546C58.1818 37.4596 59.1105 38.4281 60.3154 38.4281C61.5202 38.4281 62.4972 37.4429 62.4972 36.2378C62.4972 35.0327 61.5205 34.056 60.3154 34.056ZM16.3375 49.2543C15.1324 49.2543 14.1556 50.231 14.1556 51.4361C14.1556 52.6412 15.1324 53.6179 16.3375 53.6179H16.5193C17.7244 53.6179 18.7011 52.6412 18.7011 51.4361C18.7011 50.231 17.7244 49.2543 16.5193 49.2543H16.3375ZM23.9202 49.2543C22.7152 49.2543 21.7384 50.231 21.7384 51.4361C21.7384 52.6412 22.7152 53.6179 23.9202 53.6179H24.1018C25.3069 53.6179 26.2836 52.6412 26.2836 51.4361C26.2836 50.231 25.3069 49.2543 24.1018 49.2543H23.9202ZM88 14.4061V38.9639C88 44.7784 83.3377 49.4967 77.5231 49.4967H49.2281C48.6749 49.4967 48.2194 49.4936 47.8383 49.4856C47.439 49.4773 46.9896 49.4742 46.8143 49.4936C46.6318 49.6148 46.1842 50.0247 45.753 50.4221C45.5821 50.5794 45.3886 50.7525 45.1799 50.943L37.1745 58.2395C36.536 58.8221 35.5913 58.9729 34.8005 58.6243C34.0097 58.2754 33.4545 57.4924 33.4545 56.6281V33.4967H10.5988C7.18982 33.4967 4.36364 36.2902 4.36364 39.6987V64.2565C4.36364 67.6652 7.19006 70.3452 10.5988 70.3452H42.2046C42.7488 70.3452 43.2579 70.5952 43.6599 70.9622L50.1818 76.9753V56.2386C50.1818 55.0335 51.1585 54.0567 52.3636 54.0567C53.5687 54.0567 54.5455 55.0335 54.5455 56.2386V81.9205C54.5455 82.7847 54.0509 83.5561 53.2599 83.905C52.977 84.0298 52.6928 84.079 52.3954 84.079C51.8611 84.079 51.3341 83.8596 50.9241 83.4854L41.3588 74.7086H10.5988C4.784 74.7086 0 70.071 0 64.2563V39.6987C0 33.8841 4.784 29.1331 10.5988 29.1331H33.4545V14.4061C33.4545 8.59127 38.2752 3.92097 44.0899 3.92097H77.5234C83.3377 3.92097 88 8.59127 88 14.4061ZM83.6364 14.4061C83.6364 10.9973 80.9316 8.2846 77.5231 8.2846H44.0899C40.6812 8.2846 37.8182 10.9973 37.8182 14.4061V31.3353V51.6829L42.2048 47.7186C42.408 47.5331 42.6356 47.3634 42.8017 47.2102C44.8049 45.3644 45.3173 45.0693 47.9302 45.1232C48.2865 45.1307 48.711 45.1333 49.2281 45.1333H77.5231C80.9316 45.1333 83.6364 42.3726 83.6364 38.9641V14.4061Z" fill="#F2C94C"/>
</g>
<defs>
<clipPath id="clip0_117_2829">
<rect width="88" height="88" fill="white"/>
</clipPath>
</defs>
</svg>
