<svg width="88" height="88" viewBox="0 0 88 88" fill="none" xmlns="http://www.w3.org/2000/svg">
<path d="M69.7699 11.5296H61.8086V7.96805C61.8086 6.81574 60.5517 6.29202 59.3994 6.29202H53.219C51.7525 2.10186 48.0861 0.00678264 43.8959 0.00678264C39.7519 -0.14901 35.9826 2.39199 34.5728 6.29202H28.4971C27.3448 6.29202 26.1925 6.81574 26.1925 7.96805V11.5296H18.231C13.5131 11.58 9.6534 15.3017 9.43164 20.0146V80.0385C9.43164 84.6477 13.6218 87.9998 18.231 87.9998H69.7699C74.3791 87.9998 78.5693 84.6477 78.5693 80.0385V20.0148C78.3475 15.3017 74.4878 11.58 69.7699 11.5296ZM30.3824 10.4822H36.144C37.1497 10.3595 37.9575 9.59435 38.1344 8.59663C38.7547 5.89502 41.1249 3.95574 43.8959 3.88275C46.6412 3.96596 48.9757 5.91126 49.5526 8.59663C49.7404 9.62883 50.6016 10.4038 51.6476 10.4822H57.6187V18.8625H30.3824V10.4822ZM74.3791 80.0387C74.3791 82.3433 72.0745 83.8098 69.7699 83.8098H18.231C15.9264 83.8098 13.6218 82.3433 13.6218 80.0387V20.0148C13.8355 17.616 15.8229 15.7639 18.231 15.72H26.1923V21.0625C26.303 22.2362 27.3195 23.1142 28.4969 23.0529H59.3992C60.5982 23.1184 61.6466 22.2525 61.8084 21.0625V15.7198H69.7697C72.1776 15.7639 74.1652 17.6158 74.3789 20.0146V80.0387H74.3791Z" fill="#F2C94C"/>
<path d="M35.9344 46.8319C35.1486 46.0036 33.8441 45.9569 33.0012 46.7272L26.2969 53.1171L23.4685 50.1839C22.6828 49.3556 21.3783 49.3091 20.5353 50.0793C19.7239 50.9294 19.7239 52.267 20.5353 53.1171L24.8302 57.5168C25.2019 57.933 25.7389 58.1632 26.2967 58.1454C26.8493 58.1376 27.3764 57.9116 27.7632 57.5168L35.934 49.7651C36.744 49.022 36.7981 47.7628 36.0549 46.953C36.0168 46.9107 35.9765 46.8704 35.9344 46.8319Z" fill="#F2C94C"/>
<path d="M65.998 51.3364H41.9046C40.7475 51.3364 39.8096 52.2744 39.8096 53.4315C39.8096 54.5886 40.7475 55.5266 41.9046 55.5266H65.998C67.1551 55.5266 68.093 54.5886 68.093 53.4315C68.093 52.2744 67.1551 51.3364 65.998 51.3364Z" fill="#F2C94C"/>
<path d="M35.9344 30.0711C35.1486 29.2428 33.8441 29.1961 33.0012 29.9665L26.2969 36.3564L23.4685 33.4232C22.6828 32.5949 21.3783 32.5482 20.5353 33.3185C19.7239 34.1687 19.7239 35.5062 20.5353 36.3564L24.8302 40.7561C25.2019 41.1723 25.7389 41.4025 26.2967 41.3846C26.8493 41.3768 27.3764 41.1509 27.7632 40.7561L35.934 33.0043C36.744 32.2613 36.7981 31.0021 36.0549 30.1922C36.0168 30.1499 35.9765 30.1096 35.9344 30.0711Z" fill="#F2C94C"/>
<path d="M65.998 34.5757H41.9046C40.7475 34.5757 39.8096 35.5137 39.8096 36.6708C39.8096 37.8279 40.7475 38.7659 41.9046 38.7659H65.998C67.1551 38.7659 68.093 37.8279 68.093 36.6708C68.093 35.5137 67.1551 34.5757 65.998 34.5757Z" fill="#F2C94C"/>
<path d="M35.9344 63.592C35.1486 62.7638 33.8441 62.7172 33.0012 63.4874L26.2969 69.8773L23.4685 66.9441C22.6828 66.1158 21.3783 66.0693 20.5353 66.8394C19.7239 67.6896 19.7239 69.0271 20.5353 69.8773L24.8302 74.277C25.2019 74.6932 25.7389 74.9234 26.2967 74.9056C26.8493 74.8977 27.3764 74.6718 27.7632 74.277L35.934 66.5252C36.744 65.7822 36.7981 64.523 36.0549 63.7132C36.0168 63.671 35.9765 63.6307 35.9344 63.592Z" fill="#F2C94C"/>
<path d="M65.998 68.0967H41.9046C40.7475 68.0967 39.8096 69.0346 39.8096 70.1918C39.8096 71.3489 40.7475 72.2868 41.9046 72.2868H65.998C67.1551 72.2868 68.093 71.3489 68.093 70.1918C68.093 69.0346 67.1551 68.0967 65.998 68.0967Z" fill="#F2C94C"/>
</svg>
